<?xml version="1.0" encoding="UTF-8"?>
<svg width="575px" height="111px" viewBox="0 0 575 111" version="1.1" xmlns="http://www.w3.org/2000/svg" xmlns:xlink="http://www.w3.org/1999/xlink">
    <title>amazonpay-logo-rgb_clr (1)</title>
    <g id="Page-1" stroke="none" stroke-width="1" fill="none" fill-rule="evenodd">
        <g id="amazonpay-logo-rgb_clr-(1)">
            <path d="M44.68,63.76 C43.936383,64.4049561 42.8676827,64.513027 42.01,64.03 C38.26,60.91 37.58,59.47 35.54,56.5 C29.33,62.82 24.94,64.71 16.91,64.71 C7.4,64.71 1.0658141e-14,58.84 1.0658141e-14,47.1 C1.0658141e-14,37.93 5,31.7 12,28.64 C18.13,25.95 26.69,25.46 33.24,24.72 L33.24,23.26 C33.24,20.57 33.45,17.39 31.87,15.06 C30.49,12.98 27.87,12.13 25.53,12.13 C21.22,12.13 17.38,14.34 16.44,18.91 C16.3208684,19.9760495 15.50056,20.8291702 14.44,20.99 L3.58,19.8 C3.03808864,19.7223922 2.55167659,19.4260425 2.23419883,18.9800618 C1.91672107,18.5340812 1.7959318,17.9774576 1.9,17.44 C4.41,4.16 16.41,0.15 27.16,0.15 C32.66,0.15 39.84,1.61 44.16,5.77 C49.65,10.91 49.16,17.77 49.16,25.22 L49.16,42.81 C49.16,48.11 51.36,50.43 53.43,53.28 C54.15,54.28 54.31,55.53 53.43,56.28 C51.12,58.21 47.02,61.77 44.77,63.78 L44.77,63.78 L44.68,63.76 Z M33.29,36.22 C33.29,40.62 33.39,44.29 31.18,48.22 C29.38,51.4 26.53,53.36 23.35,53.36 C19.02,53.36 16.49,50.06 16.49,45.16 C16.49,35.54 25.12,33.79 33.29,33.79 L33.29,36.24 L33.29,36.22 Z" id="Shape" fill="#232F3E"></path>
            <path d="M75.62,63.3205963 L64.33,63.3205963 C63.2826766,63.2656564 62.4324749,62.4537138 62.33,61.41 L62.33,3.41 C62.3679817,2.24773071 63.327167,1.32851144 64.49,1.34 L75.02,1.34 C76.0989524,1.39952492 76.9604751,2.26104764 77.02,3.34 L77.02,10.91 L77.23,10.91 C79.97,3.58 85.14,0.17 92.1,0.17 C99.06,0.17 103.59,3.58 106.76,10.91 C108.876286,5.26903092 113.870119,1.20773403 119.824004,0.285534625 C125.777889,-0.636664781 131.766356,1.72357982 135.49,6.46 C139.08,11.34 138.34,18.46 138.34,24.64 L138.34,61.23 C138.329514,61.7967137 138.093582,62.3358759 137.684429,62.7281368 C137.275277,63.1203977 136.726652,63.3334024 136.16,63.3205963 L124.87,63.3205963 C123.759342,63.2621118 122.884305,62.3520736 122.87,61.24 L122.87,30.5 C122.87,28.06 123.08,21.96 122.55,19.64 C121.71,15.74 119.18,14.64 115.91,14.64 C112.912745,14.731567 110.258108,16.5996446 109.16,19.39 C108,22.33 108.1,27.2 108.1,30.5 L108.1,61.23 C108.08949,61.7949435 107.854937,62.3325616 107.447961,62.7245338 C107.040985,63.116506 106.49494,63.3307089 105.93,63.3205963 L94.61,63.3205963 C93.5015365,63.2573222 92.6291772,62.3500685 92.61,61.24 L92.61,30.5 C92.61,24.03 93.61,14.5 85.61,14.5 C77.61,14.5 77.81,23.77 77.81,30.5 L77.81,61.23 C77.7995141,61.7967137 77.5635818,62.3358759 77.1544293,62.7281368 C76.7452768,63.1203977 76.1966523,63.3334024 75.63,63.3205963" id="Path" fill="#232F3E"></path>
            <path d="M201.49,53.24 C199.42,50.39 197.22,48.07 197.22,42.78 L197.22,25.18 C197.22,17.72 197.75,10.87 192.22,5.73 C187.89,1.57 180.71,0.11 175.22,0.11 C164.47,0.11 152.47,4.11 149.95,17.4 C149.842957,17.9404652 149.963613,18.5011503 150.283496,18.9497435 C150.603379,19.3983366 151.094151,19.695099 151.64,19.77 L162.59,20.95 C163.648882,20.7859349 164.46757,19.9344992 164.59,18.87 C165.54,14.3 169.36,12.09 173.67,12.09 C176,12.09 178.67,12.95 180.01,15.03 C181.6,17.35 181.39,20.53 181.39,23.22 L181.39,24.65 C174.84,25.38 166.27,25.87 160.15,28.56 C153.07,31.62 148.1,37.85 148.1,47.03 C148.1,58.76 155.5,64.63 165.01,64.63 C173.01,64.63 177.43,62.74 183.63,56.42 C185.69,59.42 186.36,60.83 190.11,63.95 C190.966899,64.4297348 192.031753,64.3260412 192.78,63.69 L192.78,63.69 C195.03,61.69 199.13,58.12 201.44,56.19 C202.41,55.5 202.25,54.28 201.49,53.24 Z M179.29,48.17 C177.5,51.34 174.64,53.3 171.47,53.3 C167.14,53.3 164.61,50 164.61,45.11 C164.61,35.48 173.24,33.74 181.41,33.74 L181.41,36.18 C181.41,40.59 181.49,44.25 179.29,48.17 Z" id="Shape" fill="#232F3E"></path>
            <path d="M211.05,11.5 L211.05,3.21 C211.023634,2.64449855 211.23816,2.09431375 211.640366,1.69592018 C212.042572,1.2975266 212.594775,1.08824931 213.16,1.12 L250.29,1.12 C250.854512,1.10086967 251.402325,1.31325245 251.806417,1.70790328 C252.210509,2.10255411 252.435781,2.64519349 252.43,3.21 L252.43,10.32 C252.43,11.51 251.43,13.07 249.64,15.53 L230.4,42.99 C237.54,42.82 245.09,43.89 251.58,47.54 C252.778591,48.1791124 253.542106,49.4121898 253.58,50.77 L253.58,59.65 C253.58,60.87 252.25,62.28 250.84,61.55 C238.523487,55.2194779 223.903843,55.2455645 211.61,61.62 C210.32,62.31 208.97,60.92 208.97,59.7 L208.97,51.25 C208.852018,49.2581307 209.332622,47.2765096 210.35,45.56 L232.64,13.56 L213.2,13.56 C212.633787,13.5819297 212.083337,13.37079 211.677034,12.9758261 C211.270732,12.5808622 211.044101,12.036607 211.05,11.47" id="Path" fill="#232F3E"></path>
            <path d="M284.49,11.92 C276.16,11.92 275.629951,23.26 275.629951,30.34 C275.629951,37.42 275.53,52.54 284.38,52.54 C293.23,52.54 293.56,40.34 293.56,32.9 C293.56,28.02 293.35,22.16 291.87,17.53 C290.6,13.53 288.07,11.92 284.49,11.92 Z M284.38,0.08 C301.15,0.08 310.22,14.48 310.22,32.78 C310.22,50.47 300.22,64.5 284.38,64.5 C267.93,64.5 258.97,50.1 258.97,32.17 C258.97,14.24 268.04,0.08 284.38,0.08 L284.38,0.08 Z" id="Shape" fill="#232F3E"></path>
            <path d="M332.08,63.2004863 L320.82,63.2004863 C319.709342,63.1421118 318.834305,62.2320736 318.82,61.12 L318.82,3.12 C318.939272,2.01877466 319.882669,1.19275851 320.99,1.22 L331.47,1.22 C332.424435,1.25062601 333.241847,1.91272923 333.47,2.84 L333.47,11.71 L333.69,11.71 C336.85,3.78 341.28,3.55271368e-15 349.08,3.55271368e-15 C354.14,3.55271368e-15 359.08,1.83 362.27,6.83 C365.22,11.47 365.22,19.28 365.22,24.89 L365.22,61.38 C365.054869,62.4446912 364.127181,63.2227522 363.05,63.2004863 L351.69,63.2004863 C350.671106,63.1563828 349.829233,62.3902783 349.69,61.38 L349.69,29.89 C349.69,23.55 350.43,14.27 342.62,14.27 C339.720007,14.4040938 337.164583,16.2171167 336.08,18.91 C334.5,22.45 334.29,25.99 334.29,29.91 L334.29,61.12 C334.246585,62.2972634 333.267846,63.2226162 332.09,63.2004863" id="Path" fill="#232F3E"></path>
            <path d="M424,10.03 C418.25857,10.0753443 412.687929,11.9883876 408.13,15.48 L408.13,48.48 C413.183333,52.28 418.393333,54.1766667 423.76,54.1700175 C434.653333,54.1700175 440.1,46.8366667 440.1,32.17 C440.1,17.5033333 434.733333,10.12 424,10.02 L424,10.03 Z M407.3,8.49 C410.138026,5.98738492 413.380903,3.98552521 416.89,2.57 C420.20509,1.24862946 423.741269,0.569900199 427.31,0.57 C430.857157,0.503975853 434.375897,1.21386719 437.62,2.65 C440.677039,4.05159303 443.354773,6.16360876 445.43,8.81 C447.689621,11.741774 449.360353,15.0832387 450.35,18.65 C451.549289,22.8772914 452.128662,27.256272 452.07,31.65 C452.124547,36.1372276 451.504284,40.6071652 450.23,44.91 C449.163279,48.5612226 447.415933,51.9778781 445.08,54.98 C442.910732,57.7094804 440.156331,59.9171023 437.02,61.44 C433.724379,62.9697904 430.122581,63.7257232 426.49,63.65 C419.700909,63.7623191 413.129388,61.2554718 408.14,56.65 L408.14,84.41 C408.235359,85.0631777 408.016539,85.7230137 407.549776,86.1897762 C407.083014,86.6565386 406.423178,86.8753588 405.77,86.78 L398.77,86.78 C398.116822,86.8753588 397.456986,86.6565386 396.990224,86.1897762 C396.523461,85.7230137 396.304641,85.0631777 396.4,84.41 L396.4,4.7 C396.309012,4.04775774 396.529265,3.39060694 396.994936,2.92493608 C397.460607,2.45926523 398.117758,2.23901247 398.77,2.33 L403.98,2.33 C404.659848,2.26640525 405.336123,2.48365241 405.851746,2.93128043 C406.367368,3.37890845 406.677462,4.0179602 406.71,4.7 L407.3,8.49 L407.3,8.49 Z" id="Shape" fill="#232F3E"></path>
            <path d="M481.61,55.070041 C484.401153,55.0346105 487.165181,54.5169895 489.78,53.54 C492.7147,52.4606293 495.469205,50.9434602 497.95,49.04 L497.95,36.95 C495.897828,36.4674357 493.821603,36.0935818 491.73,35.83 C489.631162,35.5546867 487.516814,35.4143982 485.4,35.41 C476.466667,35.41 472.003333,38.8466667 472.009993,45.72 C472.009993,48.72 472.84,51.03 474.5,52.65 C476.16,54.27 478.53,55.0766667 481.61,55.070041 L481.61,55.070041 Z M467.75,12.65 L466.86,12.95 C466.538695,13.0640645 466.200912,13.1248655 465.86,13.13 C464.86,13.13 464.32,12.42 464.32,10.99 L464.32,7.82 C464.244109,7.01925317 464.411387,6.21422662 464.8,5.51 C465.311283,4.93687949 465.962491,4.50618672 466.69,4.26 C469.697459,3.03781583 472.834345,2.16217192 476.04,1.65 C479.712698,0.985000952 483.437583,0.65 487.17,0.65 C494.67,0.65 500.196667,2.18666667 503.75,5.26 C507.303333,8.33333333 509.083333,13.11 509.09,19.59 L509.09,60.05 C509.180988,60.7022423 508.960735,61.3593931 508.495064,61.8250639 C508.029393,62.2907348 507.372242,62.5109875 506.72,62.42 L501.62,62.42 C500.973015,62.4837743 500.328239,62.2789739 499.836639,61.8535504 C499.345039,61.428127 499.049782,60.8194376 499.02,60.17 L498.42,56.26 C495.630644,58.6767168 492.447963,60.5978247 489.01,61.94 C485.749944,63.246799 482.272189,63.9253853 478.76,63.94 C473.08,63.94 468.58,62.34 465.26,59.14 C461.94,55.94 460.273333,51.6566667 460.26,46.29 C460.26,40.53 462.313333,35.93 466.42,32.49 C470.526667,29.05 476.053333,27.3333333 483,27.34 C488.034693,27.4174196 493.042659,28.0887288 497.92,29.34 L497.92,21.56 C497.92,17.2933333 496.973333,14.2933333 495.08,12.56 C493.186667,10.8266667 489.87,9.95666667 485.13,9.95 C479.236654,10.0056765 473.382481,10.915128 467.75,12.65 Z" id="Shape" fill="#232F3E"></path>
            <path d="M547.63,72.91 C545.49,78.3566667 543.02,82.2666667 540.22,84.64 C537.42,87.0133333 533.753333,88.1966667 529.22,88.19 C526.942792,88.2203487 524.672019,87.9411278 522.47,87.36 C521.729867,87.2019303 521.062246,86.8048716 520.57,86.23 C520.12078,85.5066882 519.914088,84.6589017 519.98,83.81 L519.98,80.73 C519.98,79.23 520.57,78.48 521.76,78.48 C522.358675,78.5072849 522.954052,78.5842157 523.54,78.71 C524.593196,78.8919565 525.661435,78.9723255 526.73,78.95 C529.243989,79.1085924 531.730435,78.3520023 533.73,76.82 C535.39,75.4 536.89,72.7933333 538.23,69 L540.48,63 L517.66,6.59 C517.230952,5.6918792 516.953857,4.72880742 516.84,3.74 C516.84,2.8 517.39,2.32 518.49,2.32 L525.6,2.32 C526.510698,2.23266028 527.425418,2.43943623 528.21,2.91 C528.878853,3.65691163 529.361952,4.55115893 529.62,5.52 L546.21,51.47 L562.21,5.52 C562.468048,4.55115893 562.951147,3.65691163 563.62,2.91 C564.404582,2.43943623 565.319302,2.23266028 566.23,2.32 L572.86,2.32 C573.97,2.32 574.52,2.8 574.52,3.74 C574.400831,4.72895239 574.120452,5.69170203 573.69,6.59 L547.63,72.91" id="Path" fill="#232F3E"></path>
            <path d="M226.37,86.06 C205.16,101.71 174.37,110.06 147.93,110.06 C112.557774,110.240278 78.3930052,97.2055986 52.13,73.51 C50.13,71.72 51.91,69.27 54.3,70.66 C81.58,86.53 115.3,96.09 150.16,96.09 C175.28642,95.9527998 200.13844,90.855298 223.29,81.09 C226.87,79.57 229.88,83.45 226.37,86.09 M235.19,76.02 C237.91,79.49 232.19,93.81 229.62,100.2 C228.84,102.13 230.51,102.91 232.26,101.45 C243.63,91.93 246.57,71.99 244.26,69.11 C241.95,66.23 222.06,63.79 209.92,72.32 C208.05,73.63 208.37,75.44 210.45,75.19 C217.28,74.37 232.5,72.54 235.21,76.02" id="Shape" fill="#FF9900"></path>
        </g>
    </g>
</svg>